<?xml version="1.0" encoding="utf-8"?>
<svg id="Layer_1" data-name="Layer 1" version="1.1" viewBox="0 0 41.9 18" xmlns="http://www.w3.org/2000/svg">
  <defs>
    <style>
      .cls-1 {
        fill: #17273e;
      }

      .cls-1, .cls-2, .cls-3 {
        stroke-width: 0px;
      }

      .cls-2 {
        fill: #3e5974;
      }

      .cls-3 {
        fill: #fff;
      }

      .cls-4 {
        fill: none;
        stroke: #3e5974;
        stroke-miterlimit: 10;
      }
    </style>
  </defs>
  <g transform="matrix(1, 0, 0, 1, -0.249999, -5.109999)">
    <g>
      <g>
        <path class="cls-1" d="M11.83,10.98c-.17.16-.38.29-.65.4-.26.11-.58.17-.96.17-.44,0-.82-.09-1.12-.27s-.53-.42-.69-.72c-.15-.3-.23-.63-.24-1h4.71l-1.35-3.15c-.43-.22-.92-.34-1.49-.34-.65,0-1.21.14-1.67.42-.46.28-.81.65-1.05,1.13-.24.48-.36,1.01-.36,1.6,0,.64.13,1.21.38,1.71s.62.88,1.1,1.16c.48.28,1.04.42,1.69.42.48,0,.89-.05,1.23-.15.34-.1.62-.23.86-.41.23-.18.43-.38.6-.62l-.63-.78c-.07.12-.2.26-.36.42ZM8.44,7.9c.12-.24.32-.44.58-.61.26-.17.61-.25,1.05-.25s.75.09,1,.26c.25.17.43.38.54.62.11.24.17.46.17.67h-3.55c.02-.22.09-.45.21-.69Z"/>
        <path class="cls-1" d="M18.77,6.08l-.03.06c-.47.32-.86.74-1.14,1.24-.33.58-.49,1.23-.49,1.93,0,.19.01.38.04.56l-.98,2.28h-1.52l-1.08-2.52-.27-.62-.52-1.2-.08-.18-.48-1.11-.19-.45h1.38l1.98,4.89,1.98-4.89h1.38Z"/>
        <path class="cls-2" d="M29.22,7.37l-2.05,4.79h-1.52l-.99-2.3c.02-.18.03-.36.03-.54,0-.7-.16-1.35-.48-1.93-.29-.52-.67-.94-1.16-1.27h0l-.02-.04h1.39l1.98,4.89,1.91-4.71.15.19.74.93Z"/>
        <polygon class="cls-2" points="35.44 12.16 33.96 12.16 32.01 9.74 30.07 12.16 28.67 12.16 31.3 9.02 29.9 7.28 29.69 7.02 29.48 6.76 28.93 6.08 30.42 6.08 32.07 8.19 33.76 6.08 35.13 6.08 32.8 8.94 35.44 12.16"/>
        <path class="cls-2" d="M23.71,7.67c-.17-.31-.39-.58-.65-.81-.14-.13-.3-.24-.47-.34,0,0,0,0,0,0l-.5,1.04c.23.18.42.4.56.67.16.32.24.68.24,1.08s-.08.76-.24,1.08c-.16.32-.39.57-.69.75s-.64.27-1.03.27c-.24,0-.45-.03-.65-.1l-.49,1.02c.35.12.73.18,1.14.18.62,0,1.17-.14,1.66-.42.48-.28.86-.66,1.13-1.14.18-.31.29-.65.36-1.01.03-.2.05-.41.05-.62h0c0-.61-.14-1.15-.41-1.64Z"/>
        <path class="cls-1" d="M19.19,10.39c-.17-.32-.25-.68-.25-1.08s.08-.76.25-1.08c.17-.32.4-.57.69-.76.3-.19.64-.28,1.04-.28.17,0,.33.02.48.05l.49-1.02c-.3-.09-.63-.13-.97-.13-.63,0-1.18.14-1.67.43-.01,0-.03.02-.04.03-.17.1-.32.22-.47.34-.25.23-.46.49-.64.79-.28.49-.42,1.04-.42,1.64v.02c0,.21.02.42.06.62.06.36.18.69.36.99.25.43.58.78.99,1.05l.51-1.06c-.17-.15-.32-.34-.43-.55Z"/>
      </g>
      <path class="cls-4" d="M21.94,6.12"/>
    </g>
    <g>
      <g>
        <path class="cls-1" d="M10.61,18.46h.31c.42,0,.65-.22.65-.62v-1.85h1v1.86c0,.37.11.61.39.61h.09c.25,0,.34-.13.34-.53v-2.34h1.02v2.4c0,.32.05.47.39.47h.14c.13,0,.27.26.27.58s-.13.57-.27.57h-.08c-.36,0-.66-.08-.82-.32-.22.22-.53.32-.92.32h-.13c-.39,0-.82-.09-1.05-.5-.22.43-.66.5-.95.5h-.39v.16c0,1.16-.55,1.66-1.65,1.66h-.3c-1.25,0-1.67-.51-1.67-1.9v-3.01h1.02v2.93c0,.58.15.88.76.88h.18c.38,0,.55-.17.55-.54v-3.8h1.1v2.47Z"/>
        <path class="cls-1" d="M14.69,19.04c0-.32.13-.58.27-.58h1.65c.22,0,.34-.06.34-.18,0-.13-.08-.25-.16-.37l-1.44-2.13v-1.13l2.9-1.69v1.31l-1.82,1.08,1.88,2.7c.18.27.33.41.58.41h.08c.13,0,.27.26.27.58s-.13.57-.27.57h-.09c-.47,0-.74-.13-.98-.39-.24.23-.65.39-1.3.39h-1.64c-.14,0-.27-.26-.27-.57Z"/>
        <path class="cls-2" d="M26.4,19.62c-.11,1.05-.63,1.4-1.6,1.76l-.95.35-.38-1.05.96-.33c.71-.25.91-.39.93-.73h-.66c-.81,0-1.34-.4-1.34-1.5v-1.92c0-1.09.62-1.63,1.5-1.63s1.55.54,1.55,1.63v2.26h.47c.13,0,.27.26.27.58s-.13.57-.27.57h-.48ZM25.31,18.46v-2.26c0-.39-.23-.56-.5-.56s-.52.18-.52.61v1.7c0,.38.2.51.53.51h.49Z"/>
        <path class="cls-2" d="M26.61,19.04c0-.32.13-.58.27-.58h.69c-.13-.22-.19-.49-.19-.82v-1.62c0-1.02.65-1.53,1.56-1.53s1.55.5,1.55,1.53v2.13c0,.11,0,.21,0,.3h.56c.13,0,.27.26.27.58s-.13.57-.27.57h-4.16c-.14,0-.27-.26-.27-.57ZM28.95,15.6c-.28,0-.53.17-.53.56v1.75c0,.39.26.56.55.56h.13c.24,0,.36-.12.36-.35v-1.96c0-.39-.23-.56-.51-.56ZM28.48,13.31c0-.34.25-.56.56-.56s.56.22.56.56-.25.55-.56.55-.56-.22-.56-.55Z"/>
        <path class="cls-2" d="M30.77,19.04c0-.32.13-.58.27-.58h.16c.27,0,.44-.13.44-.46v-2.86h1.03v2.9c0,1.08-.4,1.58-1.4,1.58h-.23c-.14,0-.27-.26-.27-.57ZM30.86,20.77c0-.32.24-.53.53-.53.25,0,.47.14.52.39.06-.25.27-.4.52-.4.3,0,.54.21.54.53s-.24.53-.54.53c-.24,0-.46-.15-.51-.39-.06.24-.27.39-.53.39-.29,0-.53-.21-.53-.53Z"/>
        <path class="cls-2" d="M33.4,21.58l.49-.11c-.02-.12-.03-.24-.03-.41v-.37c0-.53.27-.74.75-.74h.27v.56h-.23c-.21,0-.28.07-.28.31v.27c0,.1,0,.19.02.28l.63-.14v.56l-1.62.36v-.56ZM33.7,12.92h1.12v6.7h-1.12v-6.7Z"/>
      </g>
      <g>
        <path class="cls-2" d="M20.39,14.59l.5,1.03s.09-.02.14-.02c.28,0,.51.17.51.56v.81l.95,1.96c.07-.21.09-.47.09-.77v-2.13c0-1.03-.64-1.53-1.55-1.53-.23,0-.45.03-.64.1Z"/>
        <path class="cls-2" d="M21.04,13.86c.3,0,.56-.22.56-.55s-.25-.56-.56-.56-.56.22-.56.56.25.55.56.55Z"/>
        <path class="cls-1" d="M21.41,18.42c-.06.03-.13.05-.22.05h-.13c-.29,0-.55-.17-.55-.56v-1.36l-.73-1.52c-.19.25-.3.58-.3.99v1.62c0,.32.06.59.19.82h-.69c-.14,0-.27.26-.27.58s.13.57.27.57h2.12c.36,0,.63-.04.84-.12l-.52-1.08Z"/>
      </g>
    </g>
  </g>
</svg>